 <svg  version="1.0" xmlns="http://www.w3.org/2000/svg"  width="900.000000pt" height="900.000000pt" viewBox="0 0 900.000000 900.000000"  preserveAspectRatio="xMidYMid meet">  <g transform="translate(0.000000,900.000000) scale(0.100000,-0.100000)" fill="#fd0d0d" stroke="none"> <path d="M4336 6110 c-16 -5 -61 -12 -100 -15 -72 -7 -198 -46 -227 -71 -8 -8 -22 -14 -30 -14 -22 -1 -129 -103 -129 -124 0 -27 -45 -118 -69 -140 -12 -11 -21 -31 -21 -45 0 -20 -12 -36 -51 -66 -64 -49 -75 -67 -83 -135 -5 -48 -4 -53 8 -37 7 9 17 17 22 17 15 0 86 95 117 156 9 18 29 45 45 61 16 15 34 39 41 51 7 13 26 28 41 34 16 5 32 19 35 29 13 40 106 54 247 39 157 -17 195 -30 355 -122 30 -17 77 -57 108 -94 47 -56 55 -71 56 -107 0 -23 4 -64 9 -92 7 -42 4 -63 -18 -130 -14 -44 -31 -93 -38 -110 -7 -16 -14 -39 -16 -50 -2 -12 -13 -21 -26 -23 -21 -3 -22 -1 -16 40 4 24 13 50 20 58 24 28 27 180 3 180 -4 0 -13 -18 -19 -40 -6 -22 -15 -40 -20 -40 -5 0 -30 22 -55 49 -45 48 -110 82 -240 125 -69 22 -366 23 -409 1 -15 -8 -39 -15 -53 -15 -13 0 -41 -9 -61 -20 -20 -10 -45 -21 -54 -24 -10 -3 -18 -12 -18 -21 0 -13 22 -15 174 -11 164 4 174 3 191 -16 16 -19 24 -20 136 -14 109 7 127 5 216 -19 127 -34 132 -41 133 -162 0 -110 -17 -160 -67 -198 -32 -25 -36 -26 -52 -11 -10 9 -23 16 -29 16 -7 0 -27 14 -44 31 -26 24 -38 29 -58 24 -14 -4 -59 -6 -101 -5 -46 1 -80 -3 -84 -9 -3 -6 -14 -11 -24 -11 -10 0 -28 -12 -42 -26 -13 -14 -36 -32 -51 -40 -15 -8 -46 -40 -68 -72 -94 -133 -211 -262 -238 -262 -28 0 -34 26 -34 139 0 68 -5 106 -18 135 l-18 41 -5 -45 c-4 -25 -8 -141 -10 -257 -5 -238 -3 -244 55 -171 18 24 40 50 48 58 8 9 60 65 115 125 55 61 122 132 149 160 27 27 63 67 81 88 l33 39 161 2 c151 3 161 2 161 -16 0 -10 -4 -18 -8 -18 -12 0 -98 -86 -217 -216 -55 -60 -130 -141 -167 -180 -38 -39 -68 -75 -68 -80 0 -14 71 -109 104 -139 14 -13 26 -29 26 -34 0 -6 11 -13 24 -17 13 -3 23 -11 22 -18 -1 -15 33 -60 97 -128 26 -28 47 -54 47 -58 0 -4 28 -35 61 -70 56 -57 61 -65 56 -96 -6 -33 -5 -34 29 -35 19 -1 49 -3 67 -4 49 -4 129 14 153 34 12 9 41 46 66 82 76 111 91 129 110 129 24 0 28 -21 31 -203 3 -130 7 -161 20 -174 9 -9 19 -14 23 -11 17 17 24 105 24 313 0 127 3 254 6 283 l7 52 132 0 c112 0 134 -2 139 -16 3 -9 6 -157 6 -330 0 -187 4 -314 9 -314 17 0 20 33 20 285 1 316 9 345 99 360 28 4 42 3 42 -4 0 -12 82 -15 94 -4 4 4 35 6 69 5 52 -3 71 1 117 25 72 37 155 119 165 161 3 17 4 32 0 32 -10 0 -41 -34 -48 -52 -10 -28 -99 -86 -142 -92 -22 -4 -137 -6 -255 -5 -413 2 -655 -2 -713 -13 -75 -14 -85 -3 -44 45 l32 38 474 4 c305 3 478 8 485 15 5 5 18 10 27 10 10 0 39 18 64 40 36 31 52 39 71 34 26 -7 34 10 8 20 -28 11 -51 6 -102 -19 -28 -14 -63 -25 -79 -25 -17 0 -50 -6 -76 -14 -31 -9 -60 -11 -89 -6 -32 6 -47 5 -59 -6 -20 -18 -31 -18 -73 3 l-35 16 -1 116 c0 64 -4 134 -10 156 -10 41 -13 110 -3 88 8 -22 31 -14 37 12 7 29 -11 102 -31 126 -29 35 -35 76 -20 126 21 67 29 169 18 227 -6 33 -6 55 1 66 8 12 3 31 -21 78 -17 34 -31 67 -31 74 0 23 -113 179 -149 206 -19 15 -43 34 -51 42 -9 8 -47 43 -84 78 -37 34 -73 62 -80 62 -7 0 -21 9 -31 20 -10 12 -24 19 -31 16 -6 -2 -22 2 -34 11 -22 15 -33 19 -155 49 -147 37 -183 40 -239 24z m249 -104 c17 -9 38 -16 47 -16 9 0 29 -7 45 -15 15 -7 48 -24 73 -35 112 -54 160 -99 160 -151 0 -11 6 -47 14 -78 8 -31 17 -68 20 -83 4 -16 11 -28 16 -28 13 0 13 95 1 138 -9 29 -8 32 12 32 33 -1 111 -109 159 -220 44 -102 59 -228 34 -291 -9 -22 -16 -52 -16 -68 0 -16 -7 -34 -15 -41 -8 -7 -15 -20 -15 -30 0 -10 -7 -23 -15 -30 -8 -7 -15 -19 -15 -27 0 -26 -161 -229 -301 -378 -72 -77 -163 -165 -170 -165 -3 0 -19 -11 -35 -25 -16 -14 -42 -36 -57 -48 -16 -12 -35 -28 -42 -34 -32 -30 -51 -15 -96 73 -25 48 -58 98 -76 113 -23 19 -33 36 -35 60 -2 29 3 39 37 65 82 65 285 279 331 348 26 40 64 109 83 153 33 75 35 87 35 191 1 93 -2 115 -16 131 -10 11 -18 30 -18 42 0 50 -140 191 -230 232 -25 11 -57 27 -72 35 -14 8 -37 14 -50 14 -13 0 -33 7 -44 15 -27 20 -302 20 -359 0 -81 -30 -118 -12 -57 27 56 36 75 45 110 52 17 4 34 12 37 17 4 5 15 9 27 9 11 0 34 7 51 14 48 22 78 25 252 21 122 -2 167 -7 190 -19z m602 -1058 c-4 -62 -7 -187 -7 -277 l0 -164 -122 7 c-84 4 -149 2 -204 -7 -44 -7 -86 -11 -92 -9 -21 7 -13 39 16 63 16 13 68 69 117 124 48 55 98 112 111 126 36 41 99 139 125 196 17 36 30 53 43 53 18 0 19 -6 13 -112z m-936 -328 c6 -16 14 -30 19 -30 4 0 10 -8 14 -17 3 -10 15 -31 26 -48 11 -16 23 -37 27 -45 4 -8 20 -34 35 -56 15 -23 28 -45 28 -48 0 -3 15 -28 33 -54 32 -46 50 -80 61 -114 10 -31 49 -21 68 17 9 18 28 52 43 75 l26 41 112 -3 112 -3 -3 -25 c-1 -13 -6 -27 -10 -30 -13 -8 -172 -277 -172 -289 0 -6 -4 -11 -8 -11 -5 0 -18 -23 -31 -51 l-22 -51 -85 4 c-98 6 -98 5 -165 138 -12 25 -27 48 -32 51 -10 7 -23 30 -60 104 -14 28 -37 67 -51 88 -14 21 -26 40 -26 43 0 2 -12 23 -27 47 -39 60 -51 80 -59 97 -4 8 -14 23 -22 33 -14 16 -10 22 44 78 32 33 65 67 72 75 21 23 42 16 53 -16z m-197 -166 c9 -8 16 -22 16 -30 0 -8 7 -17 15 -20 8 -4 15 -12 15 -19 0 -7 7 -18 15 -25 20 -17 19 -40 -2 -56 -24 -18 -43 -17 -43 1 0 8 -4 15 -10 15 -5 0 -10 6 -10 13 0 7 -13 27 -30 45 -35 39 -34 36 -14 67 19 29 27 31 48 9z m474 -75 c-2 -6 -8 -10 -13 -10 -5 0 -11 4 -13 10 -2 6 4 11 13 11 9 0 15 -5 13 -11z m-345 -117 c3 -4 8 -22 12 -39 6 -29 4 -33 -15 -33 -11 0 -24 8 -27 18 -4 9 -12 21 -20 25 -17 10 -17 44 0 50 13 4 43 -8 50 -21z"/> <path d="M4962 5341 c-19 -48 -21 -64 -12 -81 17 -31 36 -10 51 55 11 51 8 85 -8 85 -5 0 -18 -27 -31 -59z"/> <path d="M4860 5221 c-17 -22 -47 -64 -65 -94 -53 -88 -152 -213 -197 -248 -40 -32 -122 -128 -115 -135 8 -8 65 27 98 60 88 87 189 196 189 204 0 5 11 21 25 36 32 35 85 133 85 157 0 11 4 19 9 19 12 0 22 28 12 34 -4 3 -23 -12 -41 -33z"/> <path d="M4695 4690 c-12 -19 5 -30 25 -17 11 6 20 15 20 19 0 12 -38 10 -45 -2z"/> <path d="M4478 4672 c-41 -25 -34 -36 19 -28 57 7 62 12 37 31 -23 17 -22 17 -56 -3z"/> <path d="M4410 4620 c0 -5 7 -10 15 -10 8 0 15 5 15 10 0 6 -7 10 -15 10 -8 0 -15 -4 -15 -10z"/> <path d="M3955 5790 c3 -5 26 -10 50 -10 24 0 47 5 50 10 4 6 -15 10 -50 10 -35 0 -54 -4 -50 -10z"/> <path d="M3400 5001 c-54 -10 -106 -47 -123 -89 -21 -52 -22 -395 -2 -631 9 -101 14 -250 13 -331 -3 -132 2 -174 17 -159 3 4 18 1081 15 1156 0 10 21 11 88 7 96 -7 186 2 177 17 -4 5 -17 9 -30 9 -12 0 -25 7 -29 15 -6 16 -57 18 -126 6z"/> <path d="M3707 4226 c-9 -13 -33 -43 -54 -68 -21 -25 -57 -67 -79 -94 -23 -27 -54 -62 -68 -77 -15 -16 -48 -57 -74 -92 -101 -137 -106 -146 -108 -202 -1 -29 2 -53 7 -53 5 0 9 15 9 34 0 19 4 38 10 41 5 3 27 36 49 73 21 37 49 76 61 87 13 11 45 47 73 80 27 33 77 89 111 125 35 36 65 73 69 82 9 26 33 13 99 -56 72 -75 168 -192 168 -203 0 -4 -21 -30 -45 -56 -63 -68 -61 -90 3 -40 41 31 86 34 124 9 14 -9 28 -13 32 -9 4 5 31 9 59 10 29 1 82 4 120 8 56 6 67 10 67 26 0 25 -21 29 -169 33 l-124 3 -46 49 c-25 27 -68 78 -95 114 -27 36 -54 70 -61 75 -6 6 -30 36 -54 68 -24 31 -49 57 -56 57 -7 0 -20 -11 -28 -24z"/> <path d="M4020 3980 c0 -6 7 -13 15 -16 8 -4 15 -12 15 -20 0 -8 10 -14 26 -14 31 0 28 24 -5 28 -12 2 -25 10 -28 18 -6 16 -23 19 -23 4z"/> <path d="M3765 3948 c-10 -6 -30 -24 -43 -40 -13 -15 -28 -28 -33 -28 -12 0 -53 -42 -54 -55 -1 -5 -5 -18 -9 -28 -12 -26 2 -33 22 -11 29 34 62 83 62 94 0 5 3 10 8 10 11 0 88 69 77 69 -5 0 -19 -5 -30 -11z"/> <path d="M4233 3953 c-24 -9 -13 -23 17 -23 22 0 28 4 24 15 -6 15 -19 18 -41 8z"/> <path d="M3755 3733 c-14 -21 -25 -44 -25 -51 0 -7 -7 -24 -16 -37 -9 -14 -13 -32 -10 -41 8 -22 26 -8 26 22 0 15 6 24 15 24 9 0 15 9 15 25 0 13 6 28 13 32 7 4 18 20 24 36 19 42 -11 35 -42 -10z"/> <path d="M3860 3755 c0 -8 -6 -15 -13 -15 -12 0 -57 -86 -57 -109 0 -22 31 -10 41 15 5 15 12 24 16 21 3 -4 6 -60 7 -125 1 -71 6 -125 12 -133 6 -8 31 -50 54 -94 39 -74 117 -165 141 -165 6 0 25 -6 42 -14 104 -47 129 -56 159 -56 19 0 40 -6 47 -12 8 -9 55 -13 154 -14 78 0 149 -4 158 -8 9 -4 21 -1 28 7 9 12 6 16 -23 21 -19 4 -51 4 -73 1 -63 -9 -302 32 -355 60 -14 8 -32 15 -40 15 -8 0 -19 19 -26 45 -8 29 -17 45 -28 45 -10 0 -14 7 -12 23 3 20 8 22 67 22 42 0 66 4 68 13 3 7 -5 12 -20 12 -13 0 -34 9 -47 20 -13 11 -31 20 -42 20 -10 0 -18 4 -18 9 0 5 -12 14 -27 19 -32 11 -93 65 -93 81 0 6 -4 11 -10 11 -5 0 -10 8 -10 18 1 16 1 16 14 0 7 -10 18 -18 24 -18 5 0 12 -7 16 -15 3 -8 12 -15 21 -15 8 0 15 -4 15 -10 0 -5 11 -12 24 -16 14 -3 27 -12 30 -20 3 -8 19 -14 36 -14 16 0 30 -4 30 -10 0 -5 22 -10 48 -10 27 0 57 -6 68 -15 28 -21 354 -22 354 0 0 11 -16 14 -82 13 -117 -1 -168 9 -168 33 0 11 -7 19 -17 19 -10 0 -26 7 -37 15 -10 7 -44 17 -75 20 -31 4 -69 12 -86 18 -16 6 -42 10 -57 8 -17 -1 -50 11 -88 33 -34 20 -69 36 -79 36 -19 0 -42 44 -56 107 -3 18 -11 35 -16 38 -12 8 -12 52 1 60 15 9 12 25 -5 25 -8 0 -15 -7 -15 -15z"/> <path d="M3453 3708 c-56 -61 -108 -225 -98 -307 9 -65 28 -141 35 -141 4 0 12 46 18 103 12 109 27 191 39 210 28 44 53 157 35 157 -5 0 -18 -10 -29 -22z"/> <path d="M3562 3658 c-59 -127 -97 -364 -85 -521 4 -47 2 -58 -13 -64 -10 -4 -22 0 -29 10 -7 10 -17 17 -24 17 -6 0 -11 9 -11 20 0 11 -13 42 -30 68 -16 27 -30 61 -30 75 0 13 -7 27 -15 31 -12 4 -15 32 -15 161 0 89 -4 155 -9 155 -13 0 -22 -31 -21 -72 0 -18 -2 -62 -5 -98 -3 -35 -2 -74 3 -85 23 -49 32 -77 32 -98 1 -12 9 -40 20 -62 11 -22 19 -44 20 -50 0 -15 82 -89 105 -95 11 -3 21 -15 23 -27 5 -34 143 -162 209 -194 143 -69 242 -92 408 -93 130 -2 217 6 280 26 48 14 196 109 189 120 -7 12 -44 10 -44 -2 0 -5 -8 -10 -18 -10 -10 0 -27 -7 -38 -15 -10 -8 -29 -15 -40 -15 -12 0 -27 -7 -34 -15 -7 -8 -23 -15 -37 -15 -13 0 -40 -7 -61 -16 -49 -20 -211 -28 -292 -14 -36 6 -86 14 -113 19 -26 4 -53 13 -59 19 -7 7 -22 12 -35 12 -13 0 -49 14 -80 30 -31 17 -61 30 -68 30 -7 0 -28 15 -48 33 -19 17 -52 46 -72 64 l-37 32 8 83 c3 46 12 101 20 123 7 22 16 62 20 88 6 45 44 107 64 107 5 0 12 -21 15 -47 11 -82 37 -157 61 -180 13 -12 33 -39 44 -61 21 -40 91 -122 105 -122 4 0 20 -11 37 -25 30 -26 58 -33 58 -15 0 6 -7 10 -15 10 -8 0 -15 7 -15 15 0 8 -5 15 -11 15 -18 0 -149 136 -149 155 0 10 -7 23 -16 29 -11 8 -13 20 -9 39 9 33 29 31 33 -4 2 -13 10 -28 18 -32 8 -4 14 -17 14 -28 0 -11 7 -22 15 -25 8 -4 15 -10 15 -15 0 -13 102 -109 116 -109 6 0 17 -7 24 -15 7 -8 21 -15 31 -15 9 0 24 -6 32 -14 7 -8 25 -16 38 -18 34 -4 38 -38 5 -38 -14 0 -26 -4 -26 -10 0 -5 11 -10 25 -10 14 0 25 5 25 10 0 6 23 10 50 10 53 0 67 -15 24 -26 -22 -6 -24 -8 -10 -16 9 -5 23 -5 34 1 10 5 50 13 90 16 39 4 70 11 67 15 -2 4 -29 10 -58 13 -30 3 -63 10 -73 16 -11 6 -46 20 -78 31 -33 11 -84 34 -114 52 -67 41 -184 156 -207 203 -22 48 -65 193 -65 222 0 13 -4 23 -10 23 -5 0 -10 -17 -10 -37 0 -63 -12 -143 -21 -143 -5 0 -9 39 -9 87 0 66 4 91 16 104 21 24 11 114 -12 105 -8 -3 -27 -3 -44 0 -26 6 -29 11 -36 60 -3 30 -10 54 -14 54 -5 0 -17 -19 -28 -42z"/> <path d="M4870 3669 c0 -3 17 -17 38 -31 32 -21 47 -24 107 -22 39 2 86 9 105 15 19 7 41 14 49 16 10 3 11 7 3 15 -11 11 -302 19 -302 7z"/> <path d="M4665 3370 c-4 -6 12 -10 39 -10 25 0 46 5 46 10 0 6 -18 10 -39 10 -22 0 -43 -4 -46 -10z"/> <path d="M4800 3296 c0 -13 -7 -26 -15 -30 -8 -3 -15 -15 -15 -26 0 -11 -7 -20 -15 -20 -8 0 -15 -8 -15 -19 0 -10 -7 -24 -15 -31 -16 -13 -21 -40 -7 -40 12 0 52 57 52 74 0 7 7 16 15 20 8 3 15 13 15 22 0 10 7 25 16 35 9 10 13 23 9 28 -11 19 -25 12 -25 -13z"/> <path d="M4694 3295 c-8 -19 2 -45 16 -45 5 0 10 8 10 18 0 10 5 23 12 30 9 9 7 12 -10 12 -13 0 -25 -7 -28 -15z"/> <path d="M4126 3041 c-14 -22 251 -79 300 -66 29 8 -8 17 -180 41 -28 4 -61 13 -75 21 -31 15 -38 16 -45 4z"/> <path d="M4525 2970 c-30 -34 -5 -45 38 -18 20 13 36 26 37 31 0 16 -58 6 -75 -13z"/> <path d="M8460 723 c-40 -26 -148 -134 -187 -186 l-35 -47 20 -43 c11 -23 44 -64 74 -92 153 -141 158 -144 195 -118 14 10 33 23 42 28 30 19 178 181 185 203 11 35 -55 117 -183 226 -59 50 -73 53 -111 29z m70 -73 c34 -86 77 -124 160 -139 47 -8 54 -39 11 -47 -17 -4 -34 -11 -37 -15 -3 -5 -13 -9 -22 -9 -39 0 -103 -84 -127 -168 -10 -35 -38 -24 -46 18 -15 85 -63 136 -154 165 -69 21 -72 55 -6 55 64 0 161 99 161 165 0 24 20 49 31 38 4 -5 17 -33 29 -63z"/> </g> </svg> 